<svg id="svg" xmlns="http://www.w3.org/2000/svg" xmlns:xlink="http://www.w3.org/1999/xlink" width="400" height="400" viewBox="0, 0, 400,400"><g id="svgg"><path id="path0" d="M335.600 152.801 C 334.830 153.000,333.487 153.532,332.615 153.982 C 331.744 154.432,330.803 154.800,330.525 154.800 C 330.247 154.800,329.430 155.159,328.710 155.599 C 327.989 156.038,327.037 156.398,326.594 156.399 C 326.151 156.399,325.161 156.736,324.394 157.147 C 323.627 157.557,322.370 158.027,321.600 158.191 C 320.830 158.355,319.930 158.715,319.600 158.991 C 319.270 159.267,318.460 159.619,317.800 159.774 C 317.140 159.929,315.880 160.383,315.000 160.784 C 314.120 161.185,312.050 162.002,310.400 162.600 C 308.750 163.198,306.680 164.015,305.800 164.416 C 304.920 164.817,303.660 165.275,303.000 165.436 C 302.340 165.596,301.440 165.948,301.000 166.219 C 300.560 166.489,299.508 166.931,298.661 167.199 C 297.815 167.468,296.645 167.937,296.061 168.241 C 295.478 168.546,294.640 168.797,294.200 168.799 C 293.760 168.801,292.845 169.141,292.167 169.555 C 291.488 169.969,290.318 170.441,289.567 170.606 C 288.815 170.770,287.771 171.241,287.246 171.652 C 286.721 172.063,285.911 172.406,285.446 172.413 C 284.981 172.419,283.700 172.868,282.600 173.409 C 281.500 173.950,280.325 174.394,279.989 174.396 C 279.653 174.398,279.023 174.637,278.589 174.926 C 278.155 175.215,276.992 175.686,276.003 175.971 C 275.015 176.257,273.850 176.740,273.414 177.045 C 272.979 177.350,272.320 177.600,271.951 177.600 C 271.582 177.600,270.317 178.048,269.140 178.596 C 267.963 179.144,266.617 179.594,266.149 179.596 C 265.681 179.598,265.083 179.858,264.821 180.174 C 264.559 180.490,263.772 180.866,263.072 181.009 C 262.373 181.153,261.080 181.583,260.200 181.966 C 256.565 183.549,254.126 184.494,252.891 184.798 C 252.171 184.975,251.142 185.408,250.605 185.760 C 250.068 186.112,249.379 186.400,249.074 186.400 C 248.769 186.400,247.673 186.850,246.638 187.400 C 245.604 187.950,244.472 188.400,244.123 188.400 C 243.773 188.400,242.748 188.740,241.844 189.156 C 240.940 189.572,238.850 190.396,237.200 190.988 C 235.550 191.579,233.534 192.409,232.721 192.832 C 231.907 193.254,230.917 193.602,230.521 193.604 C 230.124 193.606,228.900 194.050,227.800 194.591 C 226.700 195.132,225.525 195.581,225.189 195.587 C 224.853 195.594,224.218 195.852,223.777 196.161 C 223.337 196.469,222.177 196.937,221.200 197.200 C 220.223 197.463,219.063 197.931,218.623 198.239 C 218.182 198.548,217.547 198.800,217.211 198.800 C 216.329 198.800,211.600 201.291,211.600 201.756 C 211.600 201.972,211.195 202.580,210.700 203.106 L 209.800 204.064 209.800 260.532 L 209.800 317.000 210.902 318.559 C 213.341 322.008,217.006 323.032,220.514 321.244 C 221.330 320.828,222.487 320.364,223.085 320.214 C 223.683 320.064,224.934 319.595,225.864 319.171 C 226.795 318.747,227.791 318.399,228.078 318.399 C 228.365 318.398,229.155 318.059,229.833 317.645 C 230.512 317.231,231.682 316.763,232.433 316.603 C 233.185 316.444,234.361 315.973,235.047 315.557 C 235.733 315.141,236.636 314.800,237.053 314.800 C 237.470 314.800,238.439 314.466,239.206 314.059 C 239.973 313.651,241.320 313.088,242.200 312.807 C 243.080 312.526,243.980 312.164,244.200 312.003 C 244.420 311.842,245.140 311.585,245.800 311.432 C 246.460 311.278,247.720 310.836,248.600 310.448 C 249.480 310.060,250.830 309.510,251.600 309.225 C 257.455 307.063,260.486 305.846,262.000 305.048 C 262.550 304.758,263.855 304.291,264.900 304.009 C 265.945 303.727,266.800 303.348,266.800 303.166 C 266.800 302.985,267.475 302.714,268.300 302.564 C 269.125 302.414,270.430 301.978,271.200 301.595 C 271.970 301.211,273.230 300.762,274.000 300.597 C 274.770 300.431,275.829 299.959,276.354 299.548 C 276.879 299.137,277.689 298.794,278.154 298.787 C 278.619 298.781,279.900 298.332,281.000 297.791 C 282.100 297.250,283.275 296.806,283.611 296.804 C 283.947 296.802,284.577 296.557,285.011 296.260 C 285.445 295.963,286.340 295.592,287.000 295.436 C 287.660 295.280,288.920 294.832,289.800 294.440 C 293.058 292.989,296.837 291.600,297.528 291.600 C 297.920 291.600,298.424 291.416,298.648 291.192 C 299.046 290.794,301.330 289.849,305.400 288.397 C 306.500 288.004,307.940 287.396,308.600 287.044 C 309.260 286.693,310.139 286.404,310.553 286.402 C 310.967 286.401,311.867 286.055,312.553 285.634 C 313.239 285.212,314.469 284.743,315.286 284.592 C 316.103 284.440,316.970 284.077,317.213 283.784 C 317.456 283.491,318.228 283.132,318.928 282.987 C 319.627 282.841,320.920 282.401,321.800 282.009 C 324.522 280.796,328.791 279.200,329.314 279.200 C 329.588 279.200,330.484 278.840,331.304 278.400 C 332.125 277.960,333.023 277.598,333.299 277.596 C 333.574 277.594,334.700 277.150,335.800 276.609 C 336.900 276.068,338.003 275.619,338.252 275.613 C 340.951 275.538,344.885 272.253,345.546 269.523 C 346.201 266.815,346.190 160.086,345.535 157.245 C 344.648 153.405,340.479 151.540,335.600 152.801 " stroke="none" fill="#23b4fc" fill-rule="evenodd"></path><path id="path1" d="M193.000 78.771 C 192.340 78.931,191.440 79.251,191.000 79.484 C 190.560 79.717,189.390 80.037,188.400 80.196 C 187.410 80.355,186.039 80.826,185.353 81.242 C 184.667 81.659,183.767 82.001,183.353 82.001 C 182.939 82.002,182.011 82.362,181.290 82.801 C 180.570 83.241,179.670 83.601,179.290 83.602 C 178.911 83.603,177.880 84.048,177.000 84.590 C 176.120 85.132,175.061 85.581,174.647 85.588 C 174.233 85.594,173.333 85.941,172.647 86.357 C 171.961 86.773,170.827 87.235,170.128 87.383 C 169.428 87.530,168.656 87.891,168.413 88.184 C 168.170 88.477,167.303 88.840,166.486 88.992 C 165.669 89.143,164.439 89.612,163.753 90.034 C 163.067 90.455,162.146 90.800,161.707 90.800 C 161.267 90.800,160.450 91.160,159.891 91.600 C 159.331 92.040,158.618 92.400,158.305 92.400 C 157.992 92.400,156.881 92.833,155.837 93.361 C 154.792 93.890,153.322 94.438,152.569 94.579 C 151.816 94.721,151.200 95.001,151.200 95.203 C 151.200 95.404,150.277 95.843,149.149 96.178 C 148.020 96.513,146.895 96.947,146.649 97.142 C 146.402 97.336,145.480 97.725,144.600 98.005 C 143.720 98.285,142.645 98.758,142.211 99.057 C 141.777 99.356,141.102 99.600,140.711 99.600 C 140.320 99.600,139.145 100.034,138.100 100.564 C 134.906 102.183,132.416 103.200,131.643 103.200 C 131.239 103.200,130.450 103.560,129.891 104.000 C 129.331 104.440,128.614 104.800,128.296 104.800 C 127.979 104.800,126.873 105.250,125.838 105.800 C 124.804 106.350,123.689 106.800,123.361 106.800 C 123.032 106.800,121.918 107.250,120.885 107.800 C 119.852 108.350,118.683 108.800,118.287 108.800 C 117.891 108.800,117.080 109.143,116.484 109.563 C 115.888 109.982,114.725 110.440,113.900 110.581 C 113.075 110.721,112.400 111.003,112.400 111.207 C 112.400 111.411,111.413 111.864,110.207 112.215 C 109.001 112.566,107.926 112.996,107.818 113.171 C 107.709 113.347,106.809 113.717,105.818 113.995 C 104.826 114.273,103.810 114.747,103.559 115.050 C 103.308 115.352,102.528 115.600,101.826 115.600 C 101.119 115.600,100.182 115.944,99.722 116.372 C 99.266 116.797,98.160 117.341,97.264 117.583 C 96.367 117.824,95.541 118.172,95.427 118.356 C 95.314 118.540,94.361 118.922,93.310 119.206 C 92.260 119.490,91.116 119.964,90.769 120.261 C 90.421 120.557,89.863 120.800,89.528 120.800 C 89.193 120.800,88.073 121.250,87.038 121.800 C 86.004 122.350,84.873 122.800,84.526 122.800 C 84.179 122.800,83.333 123.145,82.647 123.566 C 81.961 123.988,80.737 124.456,79.926 124.606 C 79.116 124.756,78.143 125.221,77.764 125.640 C 77.386 126.058,76.699 126.403,76.238 126.406 C 72.953 126.430,69.974 134.004,72.390 136.191 C 72.824 136.584,73.286 137.242,73.417 137.653 C 73.547 138.064,73.957 138.406,74.327 138.412 C 74.697 138.419,75.720 138.868,76.600 139.410 C 77.480 139.952,78.539 140.397,78.953 140.398 C 79.367 140.399,80.267 140.745,80.953 141.166 C 81.639 141.588,82.869 142.057,83.686 142.208 C 84.503 142.360,85.380 142.735,85.635 143.042 C 85.890 143.349,86.405 143.600,86.781 143.600 C 87.157 143.600,88.350 144.049,89.432 144.598 C 90.514 145.147,91.705 145.597,92.079 145.598 C 92.452 145.599,93.604 146.050,94.638 146.600 C 95.673 147.150,96.920 147.600,97.411 147.600 C 97.901 147.600,98.513 147.854,98.771 148.165 C 99.029 148.476,100.122 148.941,101.200 149.200 C 102.278 149.459,103.371 149.924,103.629 150.235 C 103.887 150.546,104.499 150.800,104.989 150.800 C 105.480 150.800,106.727 151.250,107.762 151.800 C 108.796 152.350,110.010 152.800,110.459 152.800 C 110.909 152.800,111.754 153.138,112.338 153.550 C 112.922 153.963,114.030 154.436,114.800 154.602 C 115.570 154.768,116.629 155.241,117.154 155.652 C 117.679 156.063,118.524 156.400,119.033 156.400 C 119.541 156.400,120.804 156.850,121.838 157.400 C 122.873 157.950,124.069 158.400,124.496 158.400 C 124.924 158.400,125.731 158.760,126.291 159.200 C 126.850 159.640,127.789 160.000,128.377 160.000 C 128.966 160.000,129.796 160.267,130.224 160.594 C 130.651 160.920,131.714 161.387,132.586 161.632 C 133.458 161.877,134.607 162.420,135.140 162.839 C 135.672 163.257,136.584 163.600,137.165 163.600 C 137.746 163.600,138.582 163.852,139.023 164.161 C 139.463 164.469,140.610 164.933,141.572 165.192 C 142.534 165.451,143.576 165.919,143.889 166.232 C 144.201 166.544,144.867 166.800,145.369 166.800 C 145.871 166.800,147.127 167.250,148.162 167.800 C 149.196 168.350,150.461 168.800,150.972 168.800 C 151.484 168.800,152.125 169.069,152.398 169.397 C 152.670 169.726,153.637 170.183,154.547 170.413 C 155.456 170.643,156.855 171.184,157.654 171.615 C 158.454 172.047,159.444 172.401,159.854 172.403 C 160.265 172.404,161.140 172.763,161.800 173.200 C 162.460 173.637,163.270 173.998,163.600 174.001 C 163.930 174.004,165.100 174.450,166.200 174.991 C 167.300 175.532,168.470 175.982,168.800 175.990 C 169.130 175.998,169.940 176.363,170.600 176.800 C 171.260 177.237,172.161 177.596,172.603 177.597 C 173.045 177.599,174.252 178.050,175.285 178.600 C 176.318 179.150,177.442 179.600,177.783 179.600 C 178.124 179.600,179.075 179.960,179.896 180.400 C 180.716 180.840,181.661 181.201,181.994 181.201 C 182.327 181.202,183.155 181.541,183.833 181.955 C 184.512 182.369,185.788 182.829,186.670 182.978 C 187.551 183.127,188.796 183.527,189.436 183.868 C 192.134 185.304,207.861 185.320,210.627 183.889 C 211.287 183.548,212.541 183.140,213.414 182.984 C 214.286 182.827,215.270 182.468,215.600 182.187 C 215.930 181.905,217.005 181.460,217.988 181.198 C 218.972 180.936,220.137 180.469,220.577 180.161 C 221.018 179.852,221.698 179.600,222.089 179.600 C 222.480 179.600,223.655 179.167,224.700 178.639 C 225.745 178.110,227.230 177.461,228.000 177.196 C 231.087 176.135,232.674 175.518,234.226 174.777 C 235.121 174.350,236.111 173.999,236.426 173.997 C 236.742 173.996,237.540 173.637,238.200 173.200 C 238.860 172.763,239.735 172.404,240.146 172.403 C 240.556 172.401,241.546 172.047,242.346 171.615 C 243.145 171.184,244.544 170.643,245.453 170.413 C 246.363 170.183,247.330 169.726,247.602 169.397 C 247.875 169.069,248.516 168.800,249.028 168.800 C 249.539 168.800,250.804 168.350,251.838 167.800 C 252.873 167.250,254.120 166.800,254.611 166.800 C 255.101 166.800,255.710 166.550,255.963 166.244 C 256.217 165.939,257.257 165.479,258.275 165.223 C 259.294 164.966,260.498 164.496,260.952 164.178 C 261.406 163.860,262.054 163.600,262.392 163.600 C 262.730 163.600,263.852 163.150,264.885 162.600 C 265.918 162.050,267.042 161.600,267.383 161.600 C 267.724 161.600,268.675 161.240,269.496 160.800 C 270.316 160.360,271.372 160.000,271.840 160.000 C 272.309 160.000,273.121 159.674,273.646 159.276 C 274.171 158.877,275.408 158.317,276.397 158.031 C 277.385 157.744,278.550 157.260,278.986 156.955 C 279.421 156.650,280.254 156.400,280.835 156.400 C 281.416 156.400,282.342 156.046,282.891 155.614 C 283.440 155.182,284.647 154.659,285.573 154.451 C 286.500 154.242,287.574 153.786,287.960 153.436 C 288.347 153.086,289.044 152.800,289.510 152.800 C 289.976 152.800,291.204 152.350,292.238 151.800 C 293.273 151.250,294.363 150.800,294.661 150.800 C 294.959 150.800,295.875 150.440,296.696 150.000 C 297.516 149.560,298.572 149.200,299.040 149.200 C 299.509 149.200,300.350 148.840,300.909 148.400 C 301.469 147.960,302.219 147.600,302.576 147.600 C 302.934 147.600,304.115 147.150,305.200 146.600 C 306.285 146.050,307.607 145.600,308.138 145.600 C 308.668 145.600,309.308 145.352,309.559 145.050 C 309.810 144.747,310.839 144.269,311.846 143.987 C 312.853 143.705,314.328 143.143,315.123 142.737 C 315.918 142.332,316.846 141.999,317.185 141.997 C 317.523 141.996,318.340 141.637,319.000 141.200 C 319.660 140.763,320.560 140.396,321.000 140.384 C 323.883 140.306,328.799 135.522,328.800 132.794 C 328.800 130.918,325.309 126.400,323.859 126.400 C 323.345 126.400,322.598 126.040,322.200 125.600 C 321.802 125.160,321.081 124.800,320.598 124.800 C 320.114 124.800,318.873 124.350,317.838 123.800 C 316.804 123.250,315.707 122.800,315.400 122.800 C 315.093 122.800,313.996 122.350,312.962 121.800 C 311.927 121.250,310.807 120.800,310.472 120.800 C 310.137 120.800,309.579 120.561,309.231 120.269 C 308.884 119.977,307.790 119.509,306.800 119.230 C 305.810 118.950,304.730 118.492,304.400 118.211 C 304.070 117.931,303.143 117.584,302.340 117.440 C 301.537 117.296,300.664 116.918,300.400 116.600 C 300.136 116.282,299.266 115.899,298.468 115.749 C 297.670 115.599,296.473 115.145,295.808 114.740 C 295.144 114.335,294.309 114.002,293.954 114.001 C 293.599 114.001,292.850 113.640,292.291 113.200 C 291.731 112.760,290.942 112.398,290.537 112.396 C 290.132 112.394,288.900 111.950,287.800 111.409 C 286.700 110.868,285.530 110.418,285.200 110.410 C 284.870 110.402,284.060 110.037,283.400 109.600 C 282.740 109.163,281.912 108.804,281.560 108.803 C 281.207 108.801,280.073 108.350,279.038 107.800 C 278.004 107.250,276.907 106.800,276.600 106.800 C 276.293 106.800,275.196 106.350,274.162 105.800 C 273.127 105.250,271.970 104.800,271.589 104.800 C 271.209 104.800,270.674 104.530,270.400 104.200 C 270.126 103.870,269.632 103.600,269.301 103.600 C 268.699 103.600,265.549 102.350,261.800 100.624 C 259.883 99.741,259.243 99.494,255.200 98.077 C 254.210 97.730,253.184 97.232,252.920 96.971 C 252.655 96.710,251.819 96.380,251.060 96.238 C 250.301 96.095,249.464 95.718,249.200 95.400 C 248.936 95.082,248.064 94.698,247.263 94.548 C 246.462 94.398,245.013 93.853,244.044 93.337 C 243.074 92.822,241.976 92.400,241.602 92.400 C 241.229 92.400,240.598 92.040,240.200 91.600 C 239.802 91.160,239.004 90.800,238.427 90.800 C 237.850 90.800,237.021 90.550,236.586 90.245 C 236.150 89.940,234.985 89.456,233.997 89.169 C 233.008 88.883,231.771 88.323,231.246 87.924 C 230.721 87.526,229.911 87.199,229.446 87.197 C 228.981 87.196,228.060 86.837,227.400 86.400 C 226.740 85.963,225.840 85.598,225.400 85.590 C 224.960 85.582,223.880 85.132,223.000 84.590 C 222.120 84.048,221.084 83.603,220.699 83.602 C 220.313 83.601,219.325 83.240,218.504 82.800 C 217.684 82.360,216.764 82.000,216.460 82.000 C 216.157 82.000,215.254 81.666,214.454 81.257 C 213.122 80.576,210.316 79.741,206.200 78.801 C 204.324 78.372,194.743 78.351,193.000 78.771 " stroke="none" fill="#fcbc05" fill-rule="evenodd"></path><path id="path2" d="M60.061 153.241 C 59.282 153.400,58.050 154.229,56.981 155.313 L 55.200 157.120 55.214 210.460 C 55.225 251.535,55.340 264.000,55.714 264.672 C 57.344 267.597,62.382 269.016,64.691 267.200 C 65.250 266.760,66.127 266.400,66.638 266.400 C 67.150 266.400,67.891 266.065,68.284 265.656 C 68.678 265.247,69.526 264.786,70.168 264.632 C 70.811 264.477,71.780 264.002,72.322 263.575 C 72.864 263.149,73.706 262.800,74.193 262.800 C 74.679 262.800,75.508 262.427,76.033 261.971 C 76.559 261.515,77.502 261.040,78.129 260.914 C 78.756 260.789,79.356 260.460,79.462 260.182 C 79.568 259.905,80.318 259.556,81.128 259.407 C 81.937 259.257,82.960 258.813,83.400 258.420 C 83.840 258.027,84.732 257.579,85.382 257.424 C 86.032 257.270,86.807 256.796,87.105 256.372 C 87.449 255.881,88.115 255.600,88.934 255.600 C 89.727 255.600,90.485 255.293,90.907 254.800 C 91.284 254.360,91.930 254.000,92.342 254.000 C 92.755 254.000,93.521 253.667,94.046 253.261 C 94.571 252.855,95.526 252.393,96.168 252.236 C 96.811 252.079,97.780 251.602,98.322 251.175 C 98.864 250.749,99.706 250.400,100.192 250.400 C 100.678 250.400,101.383 250.061,101.758 249.646 C 102.134 249.231,102.986 248.783,103.653 248.649 C 104.319 248.516,105.325 248.045,105.886 247.604 C 106.448 247.162,107.216 246.800,107.593 246.800 C 107.969 246.800,108.693 246.440,109.200 246.000 C 109.707 245.560,110.431 245.200,110.807 245.200 C 111.184 245.200,111.921 244.874,112.446 244.476 C 112.971 244.077,114.144 243.537,115.053 243.274 C 115.961 243.011,116.928 242.527,117.202 242.198 C 117.475 241.869,117.991 241.594,118.349 241.588 C 118.707 241.581,119.720 241.132,120.600 240.590 C 121.480 240.048,122.493 239.603,122.851 239.602 C 123.209 239.601,123.718 239.339,123.983 239.020 C 124.248 238.702,125.125 238.226,125.932 237.964 C 126.739 237.702,127.540 237.250,127.711 236.960 C 127.882 236.669,128.692 236.311,129.511 236.163 C 130.330 236.015,131.322 235.558,131.716 235.147 C 132.109 234.736,132.867 234.400,133.400 234.400 C 133.933 234.400,134.691 234.066,135.084 233.658 C 135.478 233.249,136.379 232.805,137.088 232.670 C 137.796 232.535,138.741 232.059,139.188 231.613 C 139.634 231.166,140.422 230.800,140.938 230.800 C 141.454 230.800,142.202 230.440,142.600 230.000 C 142.998 229.560,143.812 229.200,144.408 229.200 C 145.004 229.200,145.921 228.867,146.446 228.461 C 146.971 228.055,147.929 227.593,148.576 227.434 C 149.222 227.276,150.240 226.799,150.837 226.373 C 151.435 225.948,152.186 225.600,152.508 225.600 C 152.829 225.600,153.536 225.251,154.078 224.825 C 154.620 224.398,155.589 223.924,156.232 223.771 C 156.874 223.618,157.670 223.281,158.000 223.022 C 158.932 222.291,162.814 220.400,163.383 220.400 C 163.663 220.400,164.336 220.051,164.878 219.625 C 165.420 219.198,166.389 218.725,167.032 218.572 C 167.674 218.420,168.560 217.978,169.000 217.591 C 169.440 217.203,170.385 216.763,171.100 216.611 C 171.815 216.460,172.400 216.185,172.400 216.000 C 172.400 215.816,173.300 215.365,174.400 215.000 C 175.500 214.635,176.400 214.177,176.400 213.983 C 176.400 213.789,177.099 213.443,177.953 213.213 C 178.808 212.982,179.715 212.543,179.970 212.236 C 180.224 211.930,180.830 211.576,181.316 211.452 C 184.641 210.598,185.928 204.591,183.403 201.711 C 181.946 200.049,177.749 197.600,176.357 197.600 C 175.964 197.600,174.796 197.150,173.762 196.600 C 172.727 196.050,171.558 195.600,171.163 195.600 C 170.769 195.600,169.850 195.257,169.123 194.839 C 168.395 194.420,167.227 193.959,166.528 193.813 C 165.828 193.668,165.048 193.299,164.795 192.994 C 164.542 192.689,163.545 192.321,162.580 192.176 C 161.615 192.031,160.622 191.667,160.373 191.367 C 160.124 191.067,159.263 190.700,158.460 190.553 C 157.657 190.405,156.571 189.950,156.046 189.542 C 155.521 189.134,154.710 188.800,154.243 188.800 C 153.776 188.800,152.548 188.350,151.515 187.800 C 150.482 187.250,149.308 186.800,148.907 186.800 C 148.506 186.800,147.823 186.556,147.389 186.257 C 146.955 185.958,145.880 185.485,145.000 185.205 C 144.120 184.926,142.950 184.474,142.400 184.201 C 140.807 183.410,137.108 181.953,135.800 181.601 C 135.140 181.423,133.887 180.900,133.015 180.439 C 132.144 179.977,131.064 179.594,130.615 179.587 C 130.167 179.580,129.446 179.307,129.012 178.979 C 128.579 178.652,127.499 178.191,126.612 177.955 C 125.726 177.719,124.730 177.292,124.400 177.006 C 124.070 176.721,123.045 176.363,122.123 176.212 C 121.201 176.061,120.238 175.686,119.983 175.379 C 119.728 175.072,118.863 174.710,118.060 174.573 C 117.257 174.437,116.118 173.986,115.529 173.572 C 114.940 173.158,113.725 172.701,112.829 172.558 C 111.933 172.415,111.200 172.170,111.200 172.013 C 111.200 171.582,109.285 170.800,108.230 170.800 C 107.717 170.800,107.093 170.553,106.842 170.251 C 106.591 169.949,105.309 169.399,103.993 169.030 C 102.677 168.661,101.600 168.208,101.600 168.024 C 101.600 167.840,100.925 167.564,100.100 167.411 C 99.275 167.258,98.060 166.812,97.400 166.419 C 96.740 166.026,95.600 165.593,94.868 165.456 C 94.135 165.319,93.075 164.845,92.514 164.404 C 91.952 163.962,91.077 163.600,90.569 163.600 C 90.061 163.600,89.050 163.260,88.323 162.844 C 87.595 162.429,86.342 161.974,85.539 161.833 C 84.735 161.693,83.985 161.339,83.873 161.046 C 83.761 160.754,82.920 160.414,82.003 160.291 C 81.087 160.168,80.034 159.793,79.663 159.457 C 79.292 159.121,78.213 158.672,77.265 158.459 C 76.318 158.246,75.226 157.786,74.840 157.436 C 74.453 157.086,73.773 156.800,73.328 156.800 C 72.883 156.800,71.673 156.350,70.638 155.800 C 69.604 155.250,68.447 154.800,68.068 154.800 C 67.688 154.800,66.935 154.490,66.394 154.111 C 65.252 153.311,61.941 152.857,60.061 153.241 " stroke="none" fill="#d52c42" fill-rule="evenodd"></path><path id="path3" d="M0.000 200.000 L 0.000 400.000 200.000 400.000 L 400.000 400.000 400.000 200.000 L 400.000 0.000 200.000 0.000 L 0.000 0.000 0.000 200.000 M207.000 78.383 C 208.100 78.562,209.540 78.901,210.200 79.138 C 210.860 79.374,212.210 79.824,213.200 80.138 C 214.190 80.452,215.990 81.112,217.200 81.604 C 218.410 82.096,220.244 82.805,221.275 83.179 C 222.306 83.553,223.386 84.049,223.675 84.281 C 223.964 84.513,224.650 84.823,225.200 84.972 C 226.423 85.301,229.503 86.557,232.240 87.842 C 233.362 88.369,234.532 88.801,234.840 88.803 C 235.148 88.804,235.940 89.163,236.600 89.600 C 237.260 90.037,238.160 90.402,238.600 90.410 C 239.040 90.418,240.120 90.868,241.000 91.410 C 241.880 91.952,242.960 92.398,243.400 92.401 C 243.840 92.403,244.740 92.763,245.400 93.200 C 246.060 93.637,246.850 93.996,247.156 93.997 C 247.462 93.999,248.452 94.343,249.356 94.762 C 250.260 95.182,252.008 95.992,253.240 96.562 C 254.472 97.133,255.665 97.600,255.892 97.600 C 256.293 97.600,259.340 98.876,262.644 100.428 C 263.548 100.853,264.538 101.201,264.844 101.203 C 265.150 101.204,265.940 101.563,266.600 102.000 C 267.260 102.437,268.105 102.796,268.479 102.797 C 268.852 102.799,270.004 103.250,271.038 103.800 C 272.073 104.350,273.228 104.800,273.606 104.800 C 273.983 104.800,274.750 105.160,275.309 105.600 C 275.869 106.040,276.640 106.400,277.023 106.400 C 277.406 106.400,278.638 106.834,279.760 107.365 C 280.882 107.896,282.970 108.801,284.400 109.377 C 285.830 109.952,287.510 110.688,288.132 111.012 C 288.755 111.335,289.493 111.600,289.773 111.600 C 290.052 111.600,291.127 112.050,292.162 112.600 C 293.196 113.150,294.348 113.601,294.721 113.603 C 295.095 113.604,295.940 113.963,296.600 114.400 C 297.260 114.837,298.070 115.202,298.400 115.210 C 298.730 115.218,299.900 115.668,301.000 116.209 C 302.100 116.750,303.249 117.194,303.553 117.196 C 303.857 117.198,304.667 117.541,305.353 117.957 C 306.039 118.373,307.173 118.835,307.872 118.983 C 308.572 119.130,309.344 119.491,309.587 119.784 C 309.830 120.077,310.665 120.436,311.443 120.582 C 312.222 120.728,313.430 121.196,314.129 121.622 C 314.828 122.048,315.670 122.403,316.000 122.411 C 316.330 122.419,317.500 122.868,318.600 123.409 C 319.700 123.950,320.893 124.394,321.251 124.396 C 321.609 124.398,322.117 124.658,322.379 124.974 C 322.641 125.290,323.344 125.656,323.941 125.787 C 326.314 126.308,329.200 130.104,329.200 132.703 C 329.200 134.338,328.531 136.400,328.000 136.400 C 327.851 136.400,327.526 136.845,327.278 137.389 C 327.030 137.933,326.236 138.658,325.514 139.000 C 324.791 139.342,323.750 139.884,323.200 140.205 C 322.650 140.526,321.840 140.792,321.400 140.797 C 320.960 140.801,320.060 141.163,319.400 141.600 C 318.740 142.037,317.929 142.396,317.597 142.397 C 317.265 142.399,316.148 142.850,315.115 143.400 C 314.082 143.950,312.908 144.400,312.507 144.400 C 312.106 144.400,311.423 144.644,310.989 144.943 C 310.555 145.242,309.480 145.705,308.600 145.973 C 307.720 146.241,306.460 146.707,305.800 147.009 C 302.118 148.694,299.829 149.600,299.252 149.603 C 298.893 149.604,298.060 149.963,297.400 150.400 C 296.740 150.837,295.930 151.198,295.600 151.201 C 295.270 151.204,294.100 151.650,293.000 152.191 C 291.900 152.732,290.727 153.181,290.394 153.187 C 290.061 153.194,289.116 153.560,288.296 154.000 C 287.475 154.440,286.487 154.801,286.101 154.802 C 285.716 154.803,284.680 155.248,283.800 155.790 C 282.920 156.332,281.750 156.785,281.200 156.796 C 280.650 156.808,279.750 157.170,279.200 157.600 C 278.650 158.030,277.839 158.386,277.397 158.391 C 276.955 158.396,275.748 158.850,274.715 159.400 C 273.682 159.950,272.508 160.400,272.107 160.400 C 271.706 160.400,271.023 160.644,270.589 160.943 C 270.155 161.242,269.080 161.705,268.200 161.973 C 267.320 162.241,266.060 162.707,265.400 163.009 C 261.901 164.610,259.445 165.600,258.973 165.600 C 258.681 165.600,257.596 166.050,256.562 166.600 C 255.527 167.150,254.268 167.600,253.764 167.600 C 253.260 167.600,252.744 167.766,252.619 167.969 C 252.493 168.173,251.448 168.649,250.295 169.027 C 249.143 169.406,247.845 169.959,247.411 170.258 C 246.977 170.556,246.347 170.806,246.011 170.813 C 245.675 170.819,244.500 171.268,243.400 171.809 C 242.300 172.350,241.151 172.794,240.847 172.796 C 240.543 172.798,239.733 173.141,239.047 173.557 C 238.361 173.973,237.185 174.444,236.433 174.603 C 235.682 174.763,234.512 175.231,233.833 175.645 C 233.155 176.059,232.229 176.398,231.776 176.399 C 231.324 176.399,230.604 176.667,230.176 176.994 C 229.749 177.320,228.680 177.778,227.800 178.012 C 226.920 178.246,225.660 178.690,225.000 178.998 C 221.864 180.462,219.053 181.600,218.573 181.600 C 218.281 181.600,217.196 182.050,216.162 182.600 C 215.127 183.150,213.939 183.600,213.521 183.600 C 213.102 183.600,212.264 183.857,211.657 184.170 C 208.046 186.038,191.465 186.105,188.634 184.263 C 188.175 183.965,187.080 183.588,186.200 183.426 C 185.320 183.264,183.970 182.814,183.200 182.425 C 182.430 182.036,181.170 181.489,180.400 181.209 C 177.849 180.282,175.419 179.327,173.913 178.659 C 173.095 178.297,172.239 178.000,172.011 178.000 C 171.784 178.000,170.925 177.640,170.104 177.200 C 169.284 176.760,168.376 176.400,168.088 176.400 C 167.799 176.400,166.718 175.950,165.685 175.400 C 164.652 174.850,163.500 174.400,163.126 174.400 C 162.752 174.400,161.850 174.053,161.123 173.629 C 160.395 173.205,159.131 172.737,158.314 172.587 C 157.497 172.438,156.630 172.077,156.387 171.784 C 156.144 171.491,155.372 171.126,154.672 170.972 C 153.973 170.819,152.773 170.358,152.007 169.947 C 151.241 169.537,150.033 169.092,149.322 168.959 C 148.610 168.825,147.820 168.465,147.565 168.158 C 147.310 167.851,146.712 167.600,146.236 167.600 C 145.759 167.600,144.656 167.223,143.785 166.761 C 142.913 166.300,141.660 165.777,141.000 165.599 C 139.692 165.247,135.993 163.790,134.400 162.999 C 133.850 162.726,132.680 162.274,131.800 161.995 C 130.920 161.715,129.845 161.242,129.411 160.943 C 128.977 160.644,128.294 160.400,127.893 160.400 C 127.492 160.400,126.318 159.950,125.285 159.400 C 124.252 158.850,123.094 158.400,122.713 158.400 C 122.331 158.400,121.430 158.041,120.710 157.601 C 119.989 157.162,119.095 156.802,118.721 156.801 C 118.348 156.801,117.196 156.350,116.162 155.800 C 115.127 155.250,114.037 154.800,113.739 154.800 C 113.441 154.800,112.525 154.440,111.704 154.000 C 110.884 153.560,109.939 153.194,109.606 153.187 C 109.273 153.181,108.100 152.732,107.000 152.191 C 105.900 151.650,104.730 151.204,104.400 151.201 C 104.070 151.198,103.260 150.837,102.600 150.400 C 101.940 149.963,101.061 149.604,100.647 149.603 C 100.233 149.601,99.333 149.259,98.647 148.843 C 97.961 148.427,96.770 147.957,96.000 147.799 C 95.230 147.640,94.330 147.281,94.000 147.000 C 93.670 146.719,92.770 146.360,92.000 146.201 C 91.230 146.043,90.039 145.573,89.353 145.157 C 88.667 144.741,87.804 144.400,87.434 144.400 C 87.065 144.400,85.918 143.950,84.885 143.400 C 83.852 142.850,82.645 142.396,82.203 142.391 C 81.761 142.386,80.950 142.030,80.400 141.600 C 79.850 141.170,79.039 140.814,78.597 140.809 C 77.274 140.794,73.889 138.818,72.515 137.259 C 69.506 133.842,71.132 127.960,75.619 126.030 C 76.683 125.572,77.665 125.018,77.801 124.799 C 77.936 124.579,78.352 124.398,78.724 124.396 C 79.096 124.394,80.300 123.950,81.400 123.409 C 82.500 122.868,83.732 122.419,84.138 122.413 C 84.544 122.406,85.354 122.062,85.938 121.650 C 86.522 121.237,87.630 120.764,88.400 120.598 C 89.170 120.432,90.229 119.959,90.754 119.548 C 91.279 119.137,92.094 118.800,92.565 118.800 C 93.036 118.800,93.821 118.521,94.308 118.179 C 94.796 117.838,96.096 117.291,97.197 116.964 C 98.299 116.637,99.200 116.216,99.200 116.029 C 99.200 115.842,99.843 115.568,100.629 115.421 C 101.415 115.273,102.630 114.804,103.329 114.378 C 104.028 113.952,104.870 113.597,105.200 113.589 C 105.530 113.581,106.700 113.132,107.800 112.591 C 108.900 112.050,110.093 111.606,110.451 111.604 C 110.809 111.602,111.317 111.342,111.579 111.026 C 111.841 110.710,112.628 110.330,113.328 110.183 C 114.027 110.035,115.161 109.573,115.847 109.157 C 116.533 108.741,117.396 108.400,117.766 108.400 C 118.135 108.400,119.282 107.950,120.315 107.400 C 121.348 106.850,122.465 106.399,122.797 106.397 C 123.129 106.396,123.940 106.037,124.600 105.600 C 125.260 105.163,126.088 104.804,126.440 104.803 C 126.793 104.801,127.927 104.350,128.962 103.800 C 129.996 103.250,131.148 102.799,131.521 102.797 C 131.895 102.796,132.740 102.437,133.400 102.000 C 134.060 101.563,134.836 101.204,135.125 101.203 C 135.413 101.201,136.583 100.780,137.725 100.267 C 138.866 99.754,140.745 98.944,141.900 98.467 C 143.055 97.990,144.945 97.210,146.100 96.733 C 147.255 96.256,149.134 95.446,150.275 94.933 C 151.417 94.420,152.587 93.999,152.875 93.997 C 153.164 93.996,153.940 93.637,154.600 93.200 C 155.260 92.763,156.160 92.398,156.600 92.390 C 157.040 92.382,158.120 91.932,159.000 91.390 C 159.880 90.848,160.960 90.399,161.400 90.393 C 161.840 90.387,162.650 90.030,163.200 89.600 C 163.750 89.170,164.561 88.814,165.003 88.809 C 165.445 88.804,166.652 88.350,167.685 87.800 C 168.718 87.250,169.851 86.800,170.202 86.800 C 170.554 86.800,171.507 86.449,172.321 86.019 C 174.269 84.990,177.152 83.744,178.400 83.391 C 178.950 83.236,179.961 82.769,180.647 82.354 C 181.333 81.939,182.238 81.600,182.658 81.600 C 183.078 81.600,183.804 81.332,184.271 81.005 C 184.738 80.678,186.130 80.148,187.365 79.826 C 188.599 79.504,189.832 79.103,190.105 78.935 C 191.470 78.089,202.892 77.716,207.000 78.383 M67.104 153.313 C 67.515 153.686,68.471 154.105,69.226 154.244 C 69.982 154.383,71.020 154.760,71.534 155.081 C 72.048 155.401,73.353 155.926,74.434 156.247 C 75.515 156.568,76.400 157.004,76.400 157.215 C 76.400 157.427,76.823 157.600,77.340 157.600 C 77.858 157.600,79.127 158.050,80.162 158.600 C 81.196 159.150,82.383 159.600,82.798 159.600 C 83.214 159.600,84.150 159.943,84.877 160.361 C 85.605 160.780,86.830 161.250,87.600 161.406 C 88.370 161.562,89.270 161.925,89.600 162.214 C 89.930 162.503,91.050 162.953,92.088 163.214 C 93.126 163.475,94.183 163.939,94.437 164.244 C 94.690 164.550,95.299 164.800,95.789 164.800 C 96.280 164.800,97.527 165.250,98.562 165.800 C 99.596 166.350,100.748 166.801,101.121 166.801 C 101.495 166.802,102.372 167.152,103.071 167.578 C 103.770 168.004,104.978 168.472,105.757 168.618 C 106.535 168.764,107.376 169.130,107.626 169.431 C 107.876 169.732,108.737 170.095,109.540 170.238 C 110.343 170.381,111.540 170.816,112.200 171.206 C 112.860 171.595,114.030 172.043,114.800 172.201 C 115.570 172.360,116.470 172.722,116.800 173.007 C 117.130 173.292,118.205 173.740,119.188 174.002 C 120.172 174.264,121.337 174.731,121.777 175.039 C 122.218 175.348,122.943 175.601,123.389 175.601 C 123.835 175.602,124.755 175.941,125.433 176.355 C 126.112 176.769,127.282 177.238,128.033 177.398 C 128.785 177.558,129.670 177.922,130.000 178.207 C 130.330 178.492,131.405 178.940,132.388 179.202 C 133.372 179.464,134.537 179.931,134.977 180.239 C 135.418 180.548,136.106 180.800,136.507 180.800 C 136.908 180.800,138.082 181.250,139.115 181.800 C 140.148 182.350,141.376 182.800,141.843 182.800 C 142.310 182.800,143.121 183.134,143.646 183.542 C 144.171 183.950,145.257 184.405,146.060 184.553 C 146.863 184.700,147.736 185.082,148.000 185.400 C 148.264 185.718,149.137 186.099,149.940 186.245 C 150.743 186.391,152.030 186.846,152.800 187.255 C 153.570 187.664,154.965 188.186,155.900 188.415 C 156.835 188.644,157.600 188.996,157.600 189.197 C 157.600 189.399,158.275 189.684,159.100 189.831 C 159.925 189.977,161.161 190.435,161.847 190.849 C 162.533 191.262,163.396 191.600,163.766 191.600 C 164.135 191.600,165.282 192.050,166.315 192.600 C 167.348 193.150,168.470 193.600,168.808 193.600 C 169.146 193.600,169.777 193.837,170.211 194.126 C 170.645 194.415,171.808 194.886,172.797 195.171 C 173.785 195.457,174.950 195.940,175.386 196.245 C 175.821 196.550,176.506 196.800,176.907 196.800 C 177.308 196.800,178.482 197.250,179.515 197.800 C 180.548 198.350,181.596 198.800,181.843 198.800 C 183.640 198.800,185.883 203.932,185.454 207.062 C 185.111 209.562,181.430 213.594,179.482 213.602 C 179.217 213.603,178.280 214.048,177.400 214.590 C 176.520 215.132,175.507 215.581,175.149 215.588 C 174.791 215.594,174.282 215.861,174.017 216.180 C 173.752 216.498,172.875 216.971,172.068 217.230 C 171.261 217.489,170.330 217.926,170.000 218.200 C 169.670 218.474,168.739 218.911,167.932 219.170 C 167.125 219.429,166.263 219.883,166.018 220.179 C 165.772 220.474,164.966 220.830,164.226 220.969 C 163.486 221.108,162.664 221.482,162.400 221.800 C 162.136 222.118,161.319 222.491,160.586 222.629 C 159.852 222.767,158.943 223.221,158.564 223.640 C 158.186 224.058,157.568 224.400,157.192 224.400 C 156.816 224.400,156.064 224.749,155.522 225.175 C 154.980 225.602,154.011 226.076,153.368 226.229 C 152.726 226.382,151.918 226.751,151.574 227.049 C 151.230 227.346,150.330 227.798,149.574 228.052 C 148.818 228.306,147.930 228.734,147.600 229.003 C 147.270 229.272,146.474 229.618,145.832 229.771 C 145.189 229.924,144.220 230.398,143.678 230.825 C 143.136 231.251,142.456 231.600,142.167 231.600 C 141.879 231.600,140.796 232.050,139.762 232.600 C 138.727 233.150,137.660 233.600,137.389 233.600 C 137.119 233.600,136.689 233.852,136.433 234.161 C 136.177 234.469,135.494 234.840,134.915 234.986 C 134.337 235.131,133.420 235.598,132.878 236.025 C 132.336 236.451,131.491 236.800,131.000 236.800 C 130.509 236.800,129.664 237.149,129.122 237.575 C 128.580 238.002,127.663 238.469,127.085 238.614 C 126.506 238.760,125.831 239.122,125.584 239.419 C 125.338 239.716,124.475 240.171,123.668 240.430 C 122.861 240.689,121.930 241.134,121.600 241.419 C 121.270 241.704,120.460 242.069,119.800 242.230 C 119.140 242.391,118.187 242.842,117.681 243.233 C 117.176 243.625,116.243 244.059,115.609 244.198 C 114.974 244.337,114.241 244.710,113.979 245.026 C 113.717 245.342,113.209 245.606,112.851 245.612 C 112.493 245.619,111.480 246.068,110.600 246.610 C 109.720 247.152,108.707 247.597,108.349 247.598 C 107.991 247.599,107.498 247.840,107.255 248.134 C 107.011 248.428,106.044 248.915,105.106 249.217 C 104.168 249.519,103.310 249.877,103.200 250.013 C 102.869 250.421,97.909 252.800,97.390 252.800 C 97.125 252.800,96.479 253.133,95.954 253.539 C 95.429 253.945,94.490 254.403,93.866 254.555 C 93.242 254.708,92.353 255.185,91.890 255.616 C 91.428 256.047,90.757 256.400,90.401 256.400 C 90.044 256.400,88.023 257.275,85.909 258.345 C 83.796 259.414,81.737 260.399,81.333 260.533 C 80.930 260.667,80.330 260.951,80.000 261.163 C 79.670 261.375,78.860 261.798,78.200 262.101 C 77.540 262.405,76.640 262.846,76.200 263.082 C 75.760 263.317,74.320 263.996,73.000 264.590 C 71.680 265.184,70.330 265.840,70.000 266.047 C 69.670 266.254,69.060 266.536,68.645 266.673 C 68.229 266.810,67.095 267.345,66.123 267.861 C 61.705 270.210,56.694 268.761,54.400 264.470 L 53.400 262.600 53.400 211.000 L 53.400 159.400 54.324 157.155 C 54.883 155.797,55.634 154.703,56.224 154.387 C 56.761 154.100,57.200 153.709,57.200 153.520 C 57.200 152.240,65.722 152.062,67.104 153.313 M343.451 153.928 C 346.115 156.069,346.000 153.380,346.000 213.453 C 346.000 271.065,346.022 270.398,344.063 272.509 C 343.106 273.539,339.278 275.584,338.252 275.613 C 338.003 275.619,336.900 276.068,335.800 276.609 C 334.700 277.150,333.574 277.594,333.299 277.596 C 333.023 277.598,332.125 277.960,331.304 278.400 C 330.484 278.840,329.588 279.200,329.314 279.200 C 328.791 279.200,324.522 280.796,321.800 282.009 C 320.920 282.401,319.627 282.841,318.928 282.987 C 318.228 283.132,317.456 283.491,317.213 283.784 C 316.970 284.077,316.103 284.440,315.286 284.592 C 314.469 284.743,313.239 285.212,312.553 285.634 C 311.867 286.055,310.967 286.401,310.553 286.402 C 310.139 286.404,309.260 286.693,308.600 287.044 C 307.940 287.396,306.500 288.004,305.400 288.397 C 301.330 289.849,299.046 290.794,298.648 291.192 C 298.424 291.416,297.920 291.600,297.528 291.600 C 296.837 291.600,293.058 292.989,289.800 294.440 C 288.920 294.832,287.660 295.280,287.000 295.436 C 286.340 295.592,285.445 295.963,285.011 296.260 C 284.577 296.557,283.947 296.802,283.611 296.804 C 283.275 296.806,282.100 297.250,281.000 297.791 C 279.900 298.332,278.619 298.781,278.154 298.787 C 277.689 298.794,276.879 299.137,276.354 299.548 C 275.829 299.959,274.770 300.431,274.000 300.597 C 273.230 300.762,271.970 301.211,271.200 301.595 C 270.430 301.978,269.125 302.414,268.300 302.564 C 267.475 302.714,266.800 302.985,266.800 303.166 C 266.800 303.348,265.945 303.727,264.900 304.009 C 263.855 304.291,262.550 304.758,262.000 305.048 C 260.486 305.846,257.455 307.063,251.600 309.225 C 250.830 309.510,249.480 310.060,248.600 310.448 C 247.720 310.836,246.460 311.278,245.800 311.432 C 245.140 311.585,244.420 311.842,244.200 312.003 C 243.980 312.164,243.080 312.526,242.200 312.807 C 241.320 313.088,239.973 313.651,239.206 314.059 C 238.439 314.466,237.470 314.800,237.053 314.800 C 236.636 314.800,235.733 315.141,235.047 315.557 C 234.361 315.973,233.185 316.444,232.433 316.603 C 231.682 316.763,230.512 317.231,229.833 317.645 C 229.155 318.059,228.365 318.398,228.078 318.399 C 227.791 318.399,226.795 318.747,225.864 319.171 C 224.934 319.595,223.683 320.064,223.085 320.214 C 222.487 320.364,221.330 320.828,220.514 321.244 C 217.006 323.032,213.341 322.008,210.902 318.559 L 209.800 317.000 209.800 260.532 L 209.800 204.064 210.700 203.106 C 211.195 202.580,211.600 201.972,211.600 201.756 C 211.600 201.291,216.329 198.800,217.211 198.800 C 217.547 198.800,218.182 198.548,218.623 198.239 C 219.063 197.931,220.223 197.463,221.200 197.200 C 222.177 196.937,223.337 196.469,223.777 196.161 C 224.218 195.852,224.853 195.594,225.189 195.587 C 225.525 195.581,226.700 195.132,227.800 194.591 C 228.900 194.050,230.124 193.606,230.521 193.604 C 230.917 193.602,231.907 193.254,232.721 192.832 C 233.534 192.409,235.550 191.579,237.200 190.988 C 238.850 190.396,240.940 189.572,241.844 189.156 C 242.748 188.740,243.773 188.400,244.123 188.400 C 244.472 188.400,245.604 187.950,246.638 187.400 C 247.673 186.850,248.769 186.400,249.074 186.400 C 249.379 186.400,250.068 186.112,250.605 185.760 C 251.142 185.408,252.171 184.975,252.891 184.798 C 254.126 184.494,256.565 183.549,260.200 181.966 C 261.080 181.583,262.373 181.153,263.072 181.009 C 263.772 180.866,264.559 180.490,264.821 180.174 C 265.083 179.858,265.681 179.598,266.149 179.596 C 266.617 179.594,267.963 179.144,269.140 178.596 C 270.317 178.048,271.582 177.600,271.951 177.600 C 272.320 177.600,272.979 177.350,273.414 177.045 C 273.850 176.740,275.015 176.257,276.003 175.971 C 276.992 175.686,278.155 175.215,278.589 174.926 C 279.023 174.637,279.653 174.398,279.989 174.396 C 280.325 174.394,281.500 173.950,282.600 173.409 C 283.700 172.868,284.981 172.419,285.446 172.413 C 285.911 172.406,286.721 172.063,287.246 171.652 C 287.771 171.241,288.815 170.770,289.567 170.606 C 290.318 170.441,291.488 169.969,292.167 169.555 C 292.845 169.141,293.760 168.801,294.200 168.799 C 294.640 168.797,295.478 168.546,296.061 168.241 C 296.645 167.937,297.815 167.468,298.661 167.199 C 299.508 166.931,300.560 166.489,301.000 166.219 C 301.440 165.948,302.340 165.596,303.000 165.436 C 303.660 165.275,304.920 164.817,305.800 164.416 C 306.680 164.015,308.750 163.198,310.400 162.600 C 312.050 162.002,314.120 161.185,315.000 160.784 C 315.880 160.383,317.140 159.929,317.800 159.774 C 318.460 159.619,319.270 159.267,319.600 158.991 C 319.930 158.715,320.830 158.355,321.600 158.191 C 322.370 158.027,323.627 157.557,324.394 157.147 C 325.161 156.736,326.151 156.399,326.594 156.399 C 327.037 156.398,327.989 156.038,328.710 155.599 C 329.430 155.159,330.247 154.800,330.525 154.800 C 330.803 154.800,331.744 154.432,332.615 153.982 C 336.559 151.945,340.956 151.923,343.451 153.928 " stroke="none" fill="#fbfbfb" fill-rule="evenodd"></path><path id="path4" d="M192.200 78.364 C 191.320 78.509,190.377 78.766,190.105 78.935 C 189.832 79.103,188.599 79.504,187.365 79.826 C 186.130 80.148,184.738 80.678,184.271 81.005 C 183.804 81.332,183.078 81.600,182.658 81.600 C 182.238 81.600,181.333 81.939,180.647 82.354 C 179.961 82.769,178.950 83.236,178.400 83.391 C 177.152 83.744,174.269 84.990,172.321 86.019 C 171.507 86.449,170.554 86.800,170.202 86.800 C 169.851 86.800,168.718 87.250,167.685 87.800 C 166.652 88.350,165.445 88.804,165.003 88.809 C 164.561 88.814,163.750 89.170,163.200 89.600 C 162.650 90.030,161.840 90.387,161.400 90.393 C 160.960 90.399,159.880 90.848,159.000 91.390 C 158.120 91.932,157.040 92.382,156.600 92.390 C 156.160 92.398,155.260 92.763,154.600 93.200 C 153.940 93.637,153.164 93.996,152.875 93.997 C 152.587 93.999,151.417 94.420,150.275 94.933 C 149.134 95.446,147.255 96.256,146.100 96.733 C 144.945 97.210,143.055 97.990,141.900 98.467 C 140.745 98.944,138.866 99.754,137.725 100.267 C 136.583 100.780,135.413 101.201,135.125 101.203 C 134.836 101.204,134.060 101.563,133.400 102.000 C 132.740 102.437,131.895 102.796,131.521 102.797 C 131.148 102.799,129.996 103.250,128.962 103.800 C 127.927 104.350,126.793 104.801,126.440 104.803 C 126.088 104.804,125.260 105.163,124.600 105.600 C 123.940 106.037,123.129 106.396,122.797 106.397 C 122.465 106.399,121.348 106.850,120.315 107.400 C 119.282 107.950,118.135 108.400,117.766 108.400 C 117.396 108.400,116.533 108.741,115.847 109.157 C 115.161 109.573,114.027 110.035,113.328 110.183 C 112.628 110.330,111.841 110.710,111.579 111.026 C 111.317 111.342,110.809 111.602,110.451 111.604 C 110.093 111.606,108.900 112.050,107.800 112.591 C 106.700 113.132,105.530 113.581,105.200 113.589 C 104.870 113.597,104.040 113.944,103.356 114.361 C 102.672 114.778,101.772 115.207,101.356 115.313 C 100.882 115.435,101.066 115.524,101.851 115.554 C 102.539 115.579,103.308 115.352,103.559 115.050 C 103.810 114.747,104.826 114.273,105.818 113.995 C 106.809 113.717,107.709 113.347,107.818 113.171 C 107.926 112.996,109.001 112.566,110.207 112.215 C 111.413 111.864,112.400 111.411,112.400 111.207 C 112.400 111.003,113.075 110.721,113.900 110.581 C 114.725 110.440,115.888 109.982,116.484 109.563 C 117.080 109.143,117.891 108.800,118.287 108.800 C 118.683 108.800,119.852 108.350,120.885 107.800 C 121.918 107.250,123.032 106.800,123.361 106.800 C 123.689 106.800,124.804 106.350,125.838 105.800 C 126.873 105.250,127.979 104.800,128.296 104.800 C 128.614 104.800,129.331 104.440,129.891 104.000 C 130.450 103.560,131.239 103.200,131.643 103.200 C 132.416 103.200,134.906 102.183,138.100 100.564 C 139.145 100.034,140.320 99.600,140.711 99.600 C 141.102 99.600,141.777 99.356,142.211 99.057 C 142.645 98.758,143.720 98.285,144.600 98.005 C 145.480 97.725,146.402 97.336,146.649 97.142 C 146.895 96.947,148.020 96.513,149.149 96.178 C 150.277 95.843,151.200 95.404,151.200 95.203 C 151.200 95.001,151.816 94.721,152.569 94.579 C 153.322 94.438,154.792 93.890,155.837 93.361 C 156.881 92.833,157.992 92.400,158.305 92.400 C 158.618 92.400,159.331 92.040,159.891 91.600 C 160.450 91.160,161.267 90.800,161.707 90.800 C 162.146 90.800,163.067 90.455,163.753 90.034 C 164.439 89.612,165.669 89.143,166.486 88.992 C 167.303 88.840,168.170 88.477,168.413 88.184 C 168.656 87.891,169.428 87.530,170.128 87.383 C 170.827 87.235,171.961 86.773,172.647 86.357 C 173.333 85.941,174.233 85.594,174.647 85.588 C 175.061 85.581,176.120 85.132,177.000 84.590 C 177.880 84.048,178.911 83.603,179.290 83.602 C 179.670 83.601,180.570 83.241,181.290 82.801 C 182.011 82.362,182.939 82.002,183.353 82.001 C 183.767 82.001,184.667 81.659,185.353 81.242 C 186.039 80.826,187.410 80.354,188.400 80.195 C 189.390 80.036,190.740 79.620,191.400 79.271 C 192.899 78.479,202.821 78.115,205.800 78.744 C 209.759 79.579,213.027 80.528,214.454 81.257 C 215.254 81.666,216.157 82.000,216.460 82.000 C 216.764 82.000,217.684 82.360,218.504 82.800 C 219.325 83.240,220.313 83.601,220.699 83.602 C 221.084 83.603,222.120 84.048,223.000 84.590 C 223.880 85.132,224.960 85.582,225.400 85.590 C 225.840 85.598,226.740 85.963,227.400 86.400 C 228.060 86.837,228.981 87.196,229.446 87.197 C 229.911 87.199,230.721 87.526,231.246 87.924 C 231.771 88.323,233.008 88.883,233.997 89.169 C 234.985 89.456,236.150 89.940,236.586 90.245 C 237.021 90.550,237.850 90.800,238.427 90.800 C 239.004 90.800,239.802 91.160,240.200 91.600 C 240.598 92.040,241.229 92.400,241.602 92.400 C 241.976 92.400,243.074 92.822,244.044 93.337 C 245.013 93.853,246.462 94.398,247.263 94.548 C 248.064 94.698,248.936 95.082,249.200 95.400 C 249.464 95.718,250.301 96.095,251.060 96.238 C 251.819 96.380,252.655 96.710,252.920 96.971 C 253.184 97.232,254.210 97.730,255.200 98.077 C 259.243 99.494,259.883 99.741,261.800 100.624 C 265.549 102.350,268.699 103.600,269.301 103.600 C 269.632 103.600,270.126 103.870,270.400 104.200 C 270.674 104.530,271.209 104.800,271.589 104.800 C 271.970 104.800,273.127 105.250,274.162 105.800 C 275.196 106.350,276.293 106.800,276.600 106.800 C 276.907 106.800,278.004 107.250,279.038 107.800 C 280.073 108.350,281.207 108.801,281.560 108.803 C 281.912 108.804,282.740 109.163,283.400 109.600 C 284.060 110.037,284.870 110.402,285.200 110.410 C 285.530 110.418,286.700 110.868,287.800 111.409 C 288.900 111.950,290.132 112.394,290.537 112.396 C 290.942 112.398,291.731 112.760,292.291 113.200 C 292.850 113.640,293.599 114.001,293.954 114.001 C 294.309 114.002,295.144 114.335,295.808 114.740 C 296.473 115.145,297.670 115.599,298.468 115.749 C 299.266 115.899,300.136 116.282,300.400 116.600 C 300.664 116.918,301.537 117.296,302.340 117.440 C 303.143 117.584,304.070 117.931,304.400 118.211 C 304.730 118.492,305.810 118.950,306.800 119.230 C 307.790 119.509,308.884 119.977,309.231 120.269 C 309.579 120.561,310.137 120.800,310.472 120.800 C 310.807 120.800,311.927 121.250,312.962 121.800 C 313.996 122.350,315.093 122.800,315.400 122.800 C 315.707 122.800,316.804 123.250,317.838 123.800 C 318.873 124.350,320.114 124.800,320.598 124.800 C 321.081 124.800,321.802 125.160,322.200 125.600 C 322.598 126.040,323.345 126.400,323.859 126.400 C 325.309 126.400,328.800 130.918,328.800 132.794 C 328.799 135.522,323.883 140.306,321.000 140.384 C 320.560 140.396,319.660 140.763,319.000 141.200 C 318.340 141.637,317.523 141.996,317.185 141.997 C 316.846 141.999,315.918 142.332,315.123 142.737 C 314.328 143.143,312.853 143.705,311.846 143.987 C 310.839 144.269,309.810 144.747,309.559 145.050 C 309.308 145.352,308.668 145.600,308.138 145.600 C 307.607 145.600,306.285 146.050,305.200 146.600 C 304.115 147.150,302.934 147.600,302.576 147.600 C 302.219 147.600,301.469 147.960,300.909 148.400 C 300.350 148.840,299.509 149.200,299.040 149.200 C 298.572 149.200,297.516 149.560,296.696 150.000 C 295.875 150.440,294.959 150.800,294.661 150.800 C 294.363 150.800,293.273 151.250,292.238 151.800 C 291.204 152.350,289.976 152.800,289.510 152.800 C 289.044 152.800,288.347 153.086,287.960 153.436 C 287.574 153.786,286.500 154.242,285.573 154.451 C 284.647 154.659,283.440 155.182,282.891 155.614 C 282.342 156.046,281.416 156.400,280.835 156.400 C 280.254 156.400,279.421 156.650,278.986 156.955 C 278.550 157.260,277.385 157.744,276.397 158.031 C 275.408 158.317,274.171 158.877,273.646 159.276 C 273.121 159.674,272.309 160.000,271.840 160.000 C 271.372 160.000,270.316 160.360,269.496 160.800 C 268.675 161.240,267.724 161.600,267.383 161.600 C 267.042 161.600,265.918 162.050,264.885 162.600 C 263.852 163.150,262.730 163.600,262.392 163.600 C 262.054 163.600,261.406 163.860,260.952 164.178 C 260.498 164.496,259.294 164.966,258.275 165.223 C 257.257 165.479,256.217 165.939,255.963 166.244 C 255.710 166.550,255.101 166.800,254.611 166.800 C 254.120 166.800,252.873 167.250,251.838 167.800 C 250.804 168.350,249.539 168.800,249.028 168.800 C 248.516 168.800,247.875 169.069,247.602 169.397 C 247.330 169.726,246.363 170.183,245.453 170.413 C 244.544 170.643,243.145 171.184,242.346 171.615 C 241.546 172.047,240.556 172.401,240.146 172.403 C 239.735 172.404,238.860 172.763,238.200 173.200 C 237.540 173.637,236.742 173.996,236.426 173.997 C 236.111 173.999,235.121 174.350,234.226 174.777 C 232.674 175.518,231.087 176.135,228.000 177.196 C 227.230 177.461,225.745 178.110,224.700 178.639 C 223.655 179.167,222.480 179.600,222.089 179.600 C 221.698 179.600,221.018 179.852,220.577 180.161 C 220.137 180.469,218.972 180.936,217.988 181.198 C 217.005 181.460,215.930 181.905,215.600 182.187 C 215.270 182.468,214.286 182.827,213.414 182.984 C 212.541 183.140,211.287 183.548,210.627 183.889 C 207.861 185.320,192.134 185.304,189.436 183.868 C 188.796 183.527,187.551 183.127,186.670 182.978 C 185.788 182.829,184.512 182.369,183.833 181.955 C 183.155 181.541,182.327 181.202,181.994 181.201 C 181.661 181.201,180.716 180.840,179.896 180.400 C 179.075 179.960,178.124 179.600,177.783 179.600 C 177.442 179.600,176.318 179.150,175.285 178.600 C 174.252 178.050,173.045 177.599,172.603 177.597 C 172.161 177.596,171.260 177.237,170.600 176.800 C 169.940 176.363,169.130 175.998,168.800 175.990 C 168.470 175.982,167.300 175.532,166.200 174.991 C 165.100 174.450,163.930 174.004,163.600 174.001 C 163.270 173.998,162.460 173.637,161.800 173.200 C 161.140 172.763,160.265 172.404,159.854 172.403 C 159.444 172.401,158.454 172.047,157.654 171.615 C 156.855 171.184,155.456 170.643,154.547 170.413 C 153.637 170.183,152.670 169.726,152.398 169.397 C 152.125 169.069,151.484 168.800,150.972 168.800 C 150.461 168.800,149.196 168.350,148.162 167.800 C 147.127 167.250,145.871 166.800,145.369 166.800 C 144.867 166.800,144.201 166.544,143.889 166.232 C 143.576 165.919,142.534 165.451,141.572 165.192 C 140.610 164.933,139.463 164.469,139.023 164.161 C 138.582 163.852,137.767 163.602,137.211 163.604 C 136.428 163.607,136.683 163.833,138.340 164.604 C 139.517 165.152,140.722 165.600,141.019 165.600 C 141.315 165.600,142.404 166.050,143.438 166.600 C 144.473 167.150,145.720 167.600,146.211 167.600 C 146.701 167.600,147.310 167.851,147.565 168.158 C 147.820 168.465,148.610 168.825,149.322 168.959 C 150.033 169.092,151.241 169.537,152.007 169.947 C 152.773 170.358,153.973 170.819,154.672 170.972 C 155.372 171.126,156.144 171.491,156.387 171.784 C 156.630 172.077,157.497 172.438,158.314 172.587 C 159.131 172.737,160.395 173.205,161.123 173.629 C 161.850 174.053,162.752 174.400,163.126 174.400 C 163.500 174.400,164.652 174.850,165.685 175.400 C 166.718 175.950,167.799 176.400,168.088 176.400 C 168.376 176.400,169.284 176.760,170.104 177.200 C 170.925 177.640,171.784 178.000,172.011 178.000 C 172.239 178.000,173.095 178.297,173.913 178.659 C 175.419 179.327,177.849 180.282,180.400 181.209 C 181.170 181.489,182.430 182.036,183.200 182.425 C 183.970 182.814,185.320 183.264,186.200 183.426 C 187.080 183.588,188.175 183.965,188.634 184.263 C 191.465 186.105,208.046 186.038,211.657 184.170 C 212.264 183.857,213.102 183.600,213.521 183.600 C 213.939 183.600,215.127 183.150,216.162 182.600 C 217.196 182.050,218.281 181.600,218.573 181.600 C 219.053 181.600,221.864 180.462,225.000 178.998 C 225.660 178.690,226.920 178.246,227.800 178.012 C 228.680 177.778,229.749 177.320,230.176 176.994 C 230.604 176.667,231.324 176.399,231.776 176.399 C 232.229 176.398,233.155 176.059,233.833 175.645 C 234.512 175.231,235.682 174.763,236.433 174.603 C 237.185 174.444,238.361 173.973,239.047 173.557 C 239.733 173.141,240.543 172.798,240.847 172.796 C 241.151 172.794,242.300 172.350,243.400 171.809 C 244.500 171.268,245.675 170.819,246.011 170.813 C 246.347 170.806,246.977 170.556,247.411 170.258 C 247.845 169.959,249.143 169.406,250.295 169.027 C 251.448 168.649,252.493 168.173,252.619 167.969 C 252.744 167.766,253.260 167.600,253.764 167.600 C 254.268 167.600,255.527 167.150,256.562 166.600 C 257.596 166.050,258.681 165.600,258.973 165.600 C 259.445 165.600,261.901 164.610,265.400 163.009 C 266.060 162.707,267.320 162.241,268.200 161.973 C 269.080 161.705,270.155 161.242,270.589 160.943 C 271.023 160.644,271.706 160.400,272.107 160.400 C 272.508 160.400,273.682 159.950,274.715 159.400 C 275.748 158.850,276.955 158.396,277.397 158.391 C 277.839 158.386,278.650 158.030,279.200 157.600 C 279.750 157.170,280.650 156.808,281.200 156.796 C 281.750 156.785,282.920 156.332,283.800 155.790 C 284.680 155.248,285.716 154.803,286.101 154.802 C 286.487 154.801,287.475 154.440,288.296 154.000 C 289.116 153.560,290.061 153.194,290.394 153.187 C 290.727 153.181,291.900 152.732,293.000 152.191 C 294.100 151.650,295.270 151.204,295.600 151.201 C 295.930 151.198,296.740 150.837,297.400 150.400 C 298.060 149.963,298.893 149.604,299.252 149.603 C 299.829 149.600,302.118 148.694,305.800 147.009 C 306.460 146.707,307.720 146.241,308.600 145.973 C 309.480 145.705,310.555 145.242,310.989 144.943 C 311.423 144.644,312.106 144.400,312.507 144.400 C 312.908 144.400,314.082 143.950,315.115 143.400 C 316.148 142.850,317.265 142.399,317.597 142.397 C 317.929 142.396,318.740 142.037,319.400 141.600 C 320.060 141.163,320.960 140.801,321.400 140.797 C 321.840 140.792,322.650 140.526,323.200 140.205 C 323.750 139.884,324.791 139.342,325.514 139.000 C 326.236 138.658,327.030 137.933,327.278 137.389 C 327.526 136.845,327.851 136.400,328.000 136.400 C 328.531 136.400,329.200 134.338,329.200 132.703 C 329.200 130.104,326.314 126.308,323.941 125.787 C 323.344 125.656,322.641 125.290,322.379 124.974 C 322.117 124.658,321.609 124.398,321.251 124.396 C 320.893 124.394,319.700 123.950,318.600 123.409 C 317.500 122.868,316.330 122.419,316.000 122.411 C 315.670 122.403,314.828 122.048,314.129 121.622 C 313.430 121.196,312.222 120.728,311.443 120.582 C 310.665 120.436,309.830 120.077,309.587 119.784 C 309.344 119.491,308.572 119.130,307.872 118.983 C 307.173 118.835,306.039 118.373,305.353 117.957 C 304.667 117.541,303.857 117.198,303.553 117.196 C 303.249 117.194,302.100 116.750,301.000 116.209 C 299.900 115.668,298.730 115.218,298.400 115.210 C 298.070 115.202,297.260 114.837,296.600 114.400 C 295.940 113.963,295.095 113.604,294.721 113.603 C 294.348 113.601,293.196 113.150,292.162 112.600 C 291.127 112.050,290.052 111.600,289.773 111.600 C 289.493 111.600,288.755 111.335,288.132 111.012 C 287.510 110.688,285.830 109.952,284.400 109.377 C 282.970 108.801,280.882 107.896,279.760 107.365 C 278.638 106.834,277.406 106.400,277.023 106.400 C 276.640 106.400,275.869 106.040,275.309 105.600 C 274.750 105.160,273.983 104.800,273.606 104.800 C 273.228 104.800,272.073 104.350,271.038 103.800 C 270.004 103.250,268.852 102.799,268.479 102.797 C 268.105 102.796,267.260 102.437,266.600 102.000 C 265.940 101.563,265.150 101.204,264.844 101.203 C 264.538 101.201,263.548 100.853,262.644 100.428 C 259.340 98.876,256.293 97.600,255.892 97.600 C 255.665 97.600,254.472 97.133,253.240 96.562 C 252.008 95.992,250.260 95.182,249.356 94.762 C 248.452 94.343,247.462 93.999,247.156 93.997 C 246.850 93.996,246.060 93.637,245.400 93.200 C 244.740 92.763,243.840 92.403,243.400 92.401 C 242.960 92.398,241.880 91.952,241.000 91.410 C 240.120 90.868,239.040 90.418,238.600 90.410 C 238.160 90.402,237.260 90.037,236.600 89.600 C 235.940 89.163,235.148 88.804,234.840 88.803 C 234.532 88.801,233.362 88.369,232.240 87.842 C 229.503 86.557,226.423 85.301,225.200 84.972 C 224.650 84.823,223.964 84.513,223.675 84.281 C 223.386 84.049,222.306 83.553,221.275 83.179 C 220.244 82.805,218.410 82.096,217.200 81.604 C 215.990 81.112,214.190 80.452,213.200 80.138 C 212.210 79.824,210.860 79.374,210.200 79.138 C 207.326 78.108,196.558 77.645,192.200 78.364 M99.200 115.985 C 99.200 116.196,98.299 116.637,97.197 116.964 C 96.096 117.291,94.796 117.838,94.308 118.179 C 93.821 118.521,93.036 118.800,92.565 118.800 C 92.094 118.800,91.279 119.137,90.754 119.548 C 90.229 119.959,89.170 120.432,88.400 120.598 C 87.630 120.764,86.522 121.237,85.938 121.650 C 85.354 122.062,84.544 122.406,84.138 122.413 C 83.732 122.419,82.500 122.868,81.400 123.409 C 80.300 123.950,79.096 124.394,78.724 124.396 C 78.352 124.398,77.936 124.579,77.801 124.799 C 77.665 125.018,76.683 125.572,75.619 126.030 C 71.132 127.960,69.506 133.842,72.515 137.259 C 73.889 138.818,77.274 140.794,78.597 140.809 C 79.039 140.814,79.850 141.170,80.400 141.600 C 80.950 142.030,81.761 142.386,82.203 142.391 C 82.645 142.396,83.852 142.850,84.885 143.400 C 85.918 143.950,87.065 144.400,87.434 144.400 C 87.804 144.400,88.667 144.741,89.353 145.157 C 90.039 145.573,91.230 146.043,92.000 146.201 C 92.770 146.360,93.670 146.719,94.000 147.000 C 94.330 147.281,95.230 147.640,96.000 147.799 C 96.770 147.957,97.961 148.427,98.647 148.843 C 99.333 149.259,100.233 149.601,100.647 149.603 C 101.061 149.604,101.940 149.963,102.600 150.400 C 103.260 150.837,104.070 151.198,104.400 151.201 C 104.730 151.204,105.900 151.650,107.000 152.191 C 108.100 152.732,109.273 153.181,109.606 153.187 C 109.939 153.194,110.884 153.560,111.704 154.000 C 112.525 154.440,113.441 154.800,113.739 154.800 C 114.037 154.800,115.127 155.250,116.162 155.800 C 117.196 156.350,118.348 156.801,118.721 156.801 C 119.095 156.802,119.989 157.162,120.710 157.601 C 121.430 158.041,122.331 158.400,122.713 158.400 C 123.094 158.400,124.252 158.850,125.285 159.400 C 126.318 159.950,127.492 160.400,127.893 160.400 C 128.294 160.400,128.977 160.644,129.411 160.942 C 129.845 161.241,131.143 161.794,132.295 162.173 C 133.448 162.551,134.493 163.027,134.619 163.231 C 134.744 163.434,135.131 163.600,135.478 163.600 C 136.527 163.600,134.372 162.133,132.586 161.632 C 131.714 161.387,130.651 160.920,130.224 160.594 C 129.796 160.267,128.966 160.000,128.377 160.000 C 127.789 160.000,126.850 159.640,126.291 159.200 C 125.731 158.760,124.924 158.400,124.496 158.400 C 124.069 158.400,122.873 157.950,121.838 157.400 C 120.804 156.850,119.541 156.400,119.033 156.400 C 118.524 156.400,117.679 156.063,117.154 155.652 C 116.629 155.241,115.570 154.768,114.800 154.602 C 114.030 154.436,112.922 153.963,112.338 153.550 C 111.754 153.138,110.909 152.800,110.459 152.800 C 110.010 152.800,108.796 152.350,107.762 151.800 C 106.727 151.250,105.480 150.800,104.989 150.800 C 104.499 150.800,103.887 150.546,103.629 150.235 C 103.371 149.924,102.278 149.459,101.200 149.200 C 100.122 148.941,99.029 148.476,98.771 148.165 C 98.513 147.854,97.901 147.600,97.411 147.600 C 96.920 147.600,95.673 147.150,94.638 146.600 C 93.604 146.050,92.452 145.599,92.079 145.598 C 91.705 145.597,90.514 145.147,89.432 144.598 C 88.350 144.049,87.157 143.600,86.781 143.600 C 86.405 143.600,85.890 143.349,85.635 143.042 C 85.380 142.735,84.503 142.360,83.686 142.208 C 82.869 142.057,81.639 141.588,80.953 141.166 C 80.267 140.745,79.367 140.399,78.953 140.398 C 78.539 140.397,77.480 139.952,76.600 139.410 C 75.720 138.868,74.697 138.419,74.327 138.412 C 73.957 138.406,73.547 138.064,73.417 137.653 C 73.286 137.242,72.824 136.584,72.390 136.191 C 69.974 134.004,72.953 126.430,76.238 126.406 C 76.699 126.403,77.386 126.058,77.764 125.640 C 78.143 125.221,79.116 124.756,79.926 124.606 C 80.737 124.456,81.961 123.988,82.647 123.566 C 83.333 123.145,84.179 122.800,84.526 122.800 C 84.873 122.800,86.004 122.350,87.038 121.800 C 88.073 121.250,89.193 120.800,89.528 120.800 C 89.863 120.800,90.421 120.557,90.769 120.261 C 91.116 119.964,92.260 119.490,93.310 119.206 C 94.361 118.922,95.314 118.540,95.427 118.356 C 95.541 118.172,96.367 117.824,97.264 117.583 C 99.100 117.088,101.061 115.600,99.875 115.600 C 99.504 115.600,99.200 115.773,99.200 115.985 M58.100 152.789 C 57.605 153.001,57.200 153.330,57.200 153.520 C 57.200 153.709,56.761 154.100,56.224 154.387 C 55.634 154.703,54.883 155.797,54.324 157.155 L 53.400 159.400 53.400 211.000 L 53.400 262.600 54.400 264.470 C 56.694 268.761,61.705 270.210,66.123 267.861 C 67.095 267.345,68.229 266.810,68.645 266.673 C 69.060 266.536,69.670 266.254,70.000 266.047 C 70.330 265.840,71.680 265.184,73.000 264.590 C 74.320 263.996,75.760 263.317,76.200 263.082 C 76.640 262.846,77.540 262.405,78.200 262.101 C 78.860 261.798,79.670 261.375,80.000 261.163 C 80.330 260.951,80.930 260.667,81.333 260.533 C 81.737 260.399,83.796 259.414,85.909 258.345 C 88.023 257.275,90.044 256.400,90.401 256.400 C 90.757 256.400,91.428 256.047,91.890 255.616 C 92.353 255.185,93.242 254.708,93.866 254.555 C 94.490 254.403,95.429 253.945,95.954 253.539 C 96.479 253.133,97.125 252.800,97.390 252.800 C 97.909 252.800,102.869 250.421,103.200 250.013 C 103.310 249.877,104.168 249.519,105.106 249.217 C 106.044 248.915,107.011 248.428,107.255 248.134 C 107.498 247.840,107.991 247.599,108.349 247.598 C 108.707 247.597,109.720 247.152,110.600 246.610 C 111.480 246.068,112.493 245.619,112.851 245.612 C 113.209 245.606,113.717 245.342,113.979 245.026 C 114.241 244.710,114.974 244.337,115.609 244.198 C 116.243 244.059,117.176 243.625,117.681 243.233 C 118.187 242.842,119.140 242.391,119.800 242.230 C 120.460 242.069,121.270 241.704,121.600 241.419 C 121.930 241.134,122.861 240.689,123.668 240.430 C 124.475 240.171,125.338 239.716,125.584 239.419 C 125.831 239.122,126.506 238.760,127.085 238.614 C 127.663 238.469,128.580 238.002,129.122 237.575 C 129.664 237.149,130.509 236.800,131.000 236.800 C 131.491 236.800,132.336 236.451,132.878 236.025 C 133.420 235.598,134.337 235.131,134.915 234.986 C 135.494 234.840,136.177 234.469,136.433 234.161 C 136.689 233.852,137.119 233.600,137.389 233.600 C 137.660 233.600,138.727 233.150,139.762 232.600 C 140.796 232.050,141.879 231.600,142.167 231.600 C 142.456 231.600,143.136 231.251,143.678 230.825 C 144.220 230.398,145.189 229.924,145.832 229.771 C 146.474 229.618,147.270 229.272,147.600 229.003 C 147.930 228.734,148.818 228.306,149.574 228.052 C 150.330 227.798,151.230 227.346,151.574 227.049 C 151.918 226.751,152.726 226.382,153.368 226.229 C 154.011 226.076,154.980 225.602,155.522 225.175 C 156.064 224.749,156.816 224.400,157.192 224.400 C 157.568 224.400,158.186 224.058,158.564 223.640 C 158.943 223.221,159.852 222.767,160.586 222.629 C 161.319 222.491,162.136 222.118,162.400 221.800 C 162.664 221.482,163.486 221.108,164.226 220.969 C 164.966 220.830,165.772 220.474,166.018 220.179 C 166.263 219.883,167.125 219.429,167.932 219.170 C 168.739 218.911,169.670 218.474,170.000 218.200 C 170.330 217.926,171.261 217.489,172.068 217.230 C 172.875 216.971,173.752 216.498,174.017 216.180 C 174.282 215.861,174.791 215.594,175.149 215.588 C 175.507 215.581,176.520 215.132,177.400 214.590 C 178.280 214.048,179.217 213.603,179.482 213.602 C 181.430 213.594,185.111 209.562,185.454 207.062 C 185.883 203.932,183.640 198.800,181.843 198.800 C 181.596 198.800,180.548 198.350,179.515 197.800 C 178.482 197.250,177.308 196.800,176.907 196.800 C 176.506 196.800,175.821 196.550,175.386 196.245 C 174.950 195.940,173.785 195.457,172.797 195.171 C 171.808 194.886,170.645 194.415,170.211 194.126 C 169.777 193.837,169.146 193.600,168.808 193.600 C 168.470 193.600,167.348 193.150,166.315 192.600 C 165.282 192.050,164.135 191.600,163.766 191.600 C 163.396 191.600,162.533 191.262,161.847 190.849 C 161.161 190.435,159.925 189.977,159.100 189.831 C 158.275 189.684,157.600 189.399,157.600 189.197 C 157.600 188.996,156.835 188.644,155.900 188.415 C 154.965 188.186,153.570 187.664,152.800 187.255 C 152.030 186.846,150.743 186.391,149.940 186.245 C 149.137 186.099,148.264 185.718,148.000 185.400 C 147.736 185.082,146.863 184.700,146.060 184.553 C 145.257 184.405,144.171 183.950,143.646 183.542 C 143.121 183.134,142.310 182.800,141.843 182.800 C 141.376 182.800,140.148 182.350,139.115 181.800 C 138.082 181.250,136.908 180.800,136.507 180.800 C 136.106 180.800,135.418 180.548,134.977 180.239 C 134.537 179.931,133.372 179.464,132.388 179.202 C 131.405 178.940,130.330 178.492,130.000 178.207 C 129.670 177.922,128.785 177.558,128.033 177.398 C 127.282 177.238,126.112 176.769,125.433 176.355 C 124.755 175.941,123.835 175.602,123.389 175.601 C 122.943 175.601,122.218 175.348,121.777 175.039 C 121.337 174.731,120.172 174.264,119.188 174.002 C 118.205 173.740,117.130 173.292,116.800 173.007 C 116.470 172.722,115.570 172.360,114.800 172.201 C 114.030 172.043,112.860 171.595,112.200 171.206 C 111.540 170.816,110.343 170.381,109.540 170.238 C 108.737 170.095,107.876 169.732,107.626 169.431 C 107.376 169.130,106.535 168.764,105.757 168.618 C 104.978 168.472,103.770 168.004,103.071 167.578 C 102.372 167.152,101.495 166.802,101.121 166.801 C 100.748 166.801,99.596 166.350,98.562 165.800 C 97.527 165.250,96.280 164.800,95.789 164.800 C 95.299 164.800,94.690 164.550,94.437 164.244 C 94.183 163.939,93.126 163.475,92.088 163.214 C 91.050 162.953,89.930 162.503,89.600 162.214 C 89.270 161.925,88.370 161.562,87.600 161.406 C 86.830 161.250,85.605 160.780,84.877 160.361 C 84.150 159.943,83.214 159.600,82.798 159.600 C 82.383 159.600,81.196 159.150,80.162 158.600 C 79.127 158.050,77.858 157.600,77.340 157.600 C 76.823 157.600,76.400 157.427,76.400 157.215 C 76.400 157.004,75.515 156.568,74.434 156.247 C 73.353 155.926,72.048 155.401,71.534 155.081 C 71.020 154.760,69.982 154.383,69.226 154.244 C 68.471 154.105,67.515 153.686,67.104 153.313 C 66.231 152.523,59.622 152.139,58.100 152.789 M66.394 154.111 C 66.935 154.490,67.688 154.800,68.068 154.800 C 68.447 154.800,69.604 155.250,70.638 155.800 C 71.673 156.350,72.883 156.800,73.328 156.800 C 73.773 156.800,74.453 157.086,74.840 157.436 C 75.226 157.786,76.318 158.246,77.265 158.459 C 78.213 158.672,79.292 159.121,79.663 159.457 C 80.034 159.793,81.087 160.168,82.003 160.291 C 82.920 160.414,83.761 160.754,83.873 161.046 C 83.985 161.339,84.735 161.693,85.539 161.833 C 86.342 161.974,87.595 162.429,88.323 162.844 C 89.050 163.260,90.061 163.600,90.569 163.600 C 91.077 163.600,91.952 163.962,92.514 164.404 C 93.075 164.845,94.135 165.319,94.868 165.456 C 95.600 165.593,96.740 166.026,97.400 166.419 C 98.060 166.812,99.275 167.258,100.100 167.411 C 100.925 167.564,101.600 167.840,101.600 168.024 C 101.600 168.208,102.677 168.661,103.993 169.030 C 105.309 169.399,106.591 169.949,106.842 170.251 C 107.093 170.553,107.717 170.800,108.230 170.800 C 109.285 170.800,111.200 171.582,111.200 172.013 C 111.200 172.170,111.933 172.415,112.829 172.558 C 113.725 172.701,114.940 173.158,115.529 173.572 C 116.118 173.986,117.257 174.437,118.060 174.573 C 118.863 174.710,119.728 175.072,119.983 175.379 C 120.238 175.686,121.201 176.061,122.123 176.212 C 123.045 176.363,124.070 176.721,124.400 177.006 C 124.730 177.292,125.726 177.719,126.612 177.955 C 127.499 178.191,128.579 178.652,129.012 178.979 C 129.446 179.307,130.167 179.580,130.615 179.587 C 131.064 179.594,132.144 179.977,133.015 180.439 C 133.887 180.900,135.140 181.423,135.800 181.601 C 137.108 181.953,140.807 183.410,142.400 184.201 C 142.950 184.474,144.120 184.926,145.000 185.205 C 145.880 185.485,146.955 185.958,147.389 186.257 C 147.823 186.556,148.506 186.800,148.907 186.800 C 149.308 186.800,150.482 187.250,151.515 187.800 C 152.548 188.350,153.776 188.800,154.243 188.800 C 154.710 188.800,155.521 189.134,156.046 189.542 C 156.571 189.950,157.657 190.405,158.460 190.553 C 159.263 190.700,160.124 191.067,160.373 191.367 C 160.622 191.667,161.615 192.031,162.580 192.176 C 163.545 192.321,164.542 192.689,164.795 192.994 C 165.048 193.299,165.828 193.668,166.528 193.813 C 167.227 193.959,168.395 194.420,169.123 194.839 C 169.850 195.257,170.769 195.600,171.163 195.600 C 171.558 195.600,172.727 196.050,173.762 196.600 C 174.796 197.150,175.964 197.600,176.357 197.600 C 177.749 197.600,181.946 200.049,183.403 201.711 C 185.928 204.591,184.641 210.598,181.316 211.452 C 180.830 211.576,180.224 211.930,179.970 212.236 C 179.715 212.543,178.808 212.982,177.953 213.213 C 177.099 213.443,176.400 213.789,176.400 213.983 C 176.400 214.177,175.500 214.635,174.400 215.000 C 173.300 215.365,172.400 215.816,172.400 216.000 C 172.400 216.185,171.815 216.460,171.100 216.611 C 170.385 216.763,169.440 217.203,169.000 217.591 C 168.560 217.978,167.674 218.420,167.032 218.572 C 166.389 218.725,165.420 219.198,164.878 219.625 C 164.336 220.051,163.663 220.400,163.383 220.400 C 162.814 220.400,158.932 222.291,158.000 223.022 C 157.670 223.281,156.874 223.618,156.232 223.771 C 155.589 223.924,154.620 224.398,154.078 224.825 C 153.536 225.251,152.829 225.600,152.508 225.600 C 152.186 225.600,151.435 225.948,150.837 226.373 C 150.240 226.799,149.222 227.276,148.576 227.434 C 147.929 227.593,146.971 228.055,146.446 228.461 C 145.921 228.867,145.004 229.200,144.408 229.200 C 143.812 229.200,142.998 229.560,142.600 230.000 C 142.202 230.440,141.454 230.800,140.938 230.800 C 140.422 230.800,139.634 231.166,139.188 231.613 C 138.741 232.059,137.796 232.535,137.088 232.670 C 136.379 232.805,135.478 233.249,135.084 233.658 C 134.691 234.066,133.933 234.400,133.400 234.400 C 132.867 234.400,132.109 234.736,131.716 235.147 C 131.322 235.558,130.330 236.015,129.511 236.163 C 128.692 236.311,127.882 236.669,127.711 236.960 C 127.540 237.250,126.739 237.702,125.932 237.964 C 125.125 238.226,124.248 238.702,123.983 239.020 C 123.718 239.339,123.209 239.601,122.851 239.602 C 122.493 239.603,121.480 240.048,120.600 240.590 C 119.720 241.132,118.707 241.581,118.349 241.588 C 117.991 241.594,117.475 241.869,117.202 242.198 C 116.928 242.527,115.961 243.011,115.053 243.274 C 114.144 243.537,112.971 244.077,112.446 244.476 C 111.921 244.874,111.184 245.200,110.807 245.200 C 110.431 245.200,109.707 245.560,109.200 246.000 C 108.693 246.440,107.969 246.800,107.593 246.800 C 107.216 246.800,106.448 247.162,105.886 247.604 C 105.325 248.045,104.319 248.516,103.653 248.649 C 102.986 248.783,102.134 249.231,101.758 249.646 C 101.383 250.061,100.678 250.400,100.192 250.400 C 99.706 250.400,98.864 250.749,98.322 251.175 C 97.780 251.602,96.811 252.079,96.168 252.236 C 95.526 252.393,94.571 252.855,94.046 253.261 C 93.521 253.667,92.755 254.000,92.342 254.000 C 91.930 254.000,91.284 254.360,90.907 254.800 C 90.485 255.293,89.727 255.600,88.934 255.600 C 88.115 255.600,87.449 255.881,87.105 256.372 C 86.807 256.796,86.032 257.270,85.382 257.424 C 84.732 257.579,83.840 258.027,83.400 258.420 C 82.960 258.813,81.937 259.257,81.128 259.407 C 80.318 259.556,79.568 259.905,79.462 260.182 C 79.356 260.460,78.756 260.789,78.129 260.914 C 77.502 261.040,76.559 261.515,76.033 261.971 C 75.508 262.427,74.679 262.800,74.193 262.800 C 73.706 262.800,72.864 263.149,72.322 263.575 C 71.780 264.002,70.811 264.477,70.168 264.632 C 69.526 264.786,68.678 265.247,68.284 265.656 C 67.891 266.065,67.150 266.400,66.638 266.400 C 66.127 266.400,65.250 266.760,64.691 267.200 C 62.382 269.016,57.344 267.597,55.714 264.672 C 55.340 264.000,55.225 251.535,55.214 210.460 L 55.200 157.120 56.981 155.313 C 59.434 152.825,63.768 152.272,66.394 154.111 " stroke="none" fill="#f08990" fill-rule="evenodd"></path></g></svg>